<?xml version="1.0" encoding="utf-8"?>
<!-- Generator: Adobe Illustrator 15.0.0, SVG Export Plug-In . SVG Version: 6.00 Build 0)  -->
<!DOCTYPE svg PUBLIC "-//W3C//DTD SVG 1.1//EN" "http://www.w3.org/Graphics/SVG/1.1/DTD/svg11.dtd">
<svg version="1.1" id="logo" onload="init()" xmlns="http://www.w3.org/2000/svg" xmlns:xlink="http://www.w3.org/1999/xlink"
	 x="0px" y="0px" width="1106.352px" height="451.545px" viewBox="1457.226 3096.827 1106.352 451.545"
	 enable-background="new 1457.226 3096.827 1106.352 451.545" xml:space="preserve">
<title>WebPlatform.org Logo</title>
<script  type="text/ecmascript">
	<![CDATA[  
    var pairs = [];
    var colorA = ["default","orange","red","purple","green","gray","alt"];
    var bgA = ["black","white","#dedfde","#f1ecd7"];
    var outlineA = ["none","inline"];
    var sizeA = ["10","35","75","130","200","100%"];

    function init() {
      // alert("init")
      var params = window.location.href.split("?")[1];
      if (params.length) {
        var allpairs = params.split("&");
        //alert("allpairs: " + allpairs.length)
        for (var p = 0; allpairs.length > p; p++) {
          var eachP = allpairs[p].split("=");
          pairs[ eachP[0] ] = eachP[1];

          switch (eachP[0] ) {
            case "c":
              colors( eachP[1] );
              break;
            case "b":
              changeBG( eachP[1] );
              break;
            case "o":
              toggleOutline( eachP[1] );
              break;
            case "s":
              resize( eachP[1] );
              break;
          }
        }
      }
    }

    function setLocation() {
      if(window.history.pushState) {
        var params = ""; 
        for (var i in pairs) {
          //alert("setLocation\n" + i);
          var eachP = i + "=" + pairs[i];
          params += eachP + "&";
        }
        params = params.slice(0, -1);
        var baseURI = window.location.href.split("?")[0];
        //window.location.href = baseURI + "?" + params;
        window.history.pushState("parameters", "Title", baseURI + "?" + params);
      }
    }

    function colors( cindex ) {
      var color = colorA[ cindex ];
      var logo = document.getElementById("logo");
      logo.setAttribute("class", color);
      pairs["c"] = cindex;
      setLocation();
    }

    function changeBG( bindex ) {
      var color = bgA[ bindex ];
      var b = document.getElementById("background");
      b.setAttribute("fill", color);
      pairs["b"] = bindex;
      setLocation();
    }

    function toggleOutline( oindex ) {
      var o = document.getElementById("outline");
      var d;
      if (null != oindex) {
        d = outlineA[ oindex ];
      } else {
        if ("none" != o.getAttribute("display")) {
          d = "none";
          oindex = 0;
        } else {
          d = "inline";
          oindex = 1;
        }
      }

      o.setAttribute("display", d);
      pairs["o"] = oindex;
      setLocation();
    }

    function resize( sindex ) {
      var size = sizeA[ sindex ];
      var logo = document.getElementById("logo");
      logo.setAttribute("width", size);
      logo.setAttribute("height", size);
      pairs["s"] = sindex;
      setLocation();
    }
  
		
		]]>
</script>
<g>
	<g>
		<g>
			<path fill="#58595B" d="M1947.794,3360.288v-8.973l7.74-2.576v-48.99l-7.74-3.094v-8.559l23.723-0.518h9.797
				c10.449,0,18.529,3.027,24.234,9.076c5.709,6.051,8.564,14.814,8.564,26.299c0,11.549-3.094,20.662-9.281,27.328
				c-6.189,6.672-14.547,10.006-25.066,10.006H1947.794z M1971.517,3299.749v48.471h8.559c5.363,0,9.49-1.908,12.375-5.723
				c2.887-3.816,4.334-10.156,4.334-19.027c0-8.389-1.359-14.439-4.076-18.15c-2.717-3.715-6.688-5.57-11.912-5.57H1971.517z"/>
			<path fill="#58595B" d="M2049.173,3303.566c8.32,0,14.73,2.422,19.234,7.273c4.506,4.846,6.756,11.703,6.756,20.57
				c0,9.217-2.494,16.502-7.479,21.865s-11.67,8.043-20.057,8.043c-17.533,0-26.299-9.453-26.299-28.357
				c0-9.217,2.506-16.414,7.525-21.607C2033.874,3306.161,2040.65,3303.566,2049.173,3303.566z M2048.657,3315.427
				c-3.916,0-6.791,1.271-8.607,3.814c-1.826,2.545-2.734,6.947-2.734,13.199c0,5.916,0.854,10.229,2.576,12.941
				c1.717,2.721,4.467,4.078,8.252,4.078c3.779,0,6.562-1.34,8.354-4.021c1.783-2.686,2.68-7.184,2.68-13.514
				c0-5.568-0.844-9.709-2.527-12.426C2054.966,3316.786,2052.304,3315.427,2048.657,3315.427z"/>
			<path fill="#58595B" d="M2125.697,3343.788l5.156,8.764c-6.672,5.848-14.062,8.766-22.174,8.766
				c-8.455,0-15.041-2.471-19.746-7.422c-4.713-4.953-7.068-11.824-7.068-20.629c0-9.211,2.49-16.465,7.477-21.758
				c4.986-5.297,11.945-7.943,20.889-7.943c2.609,0,5.43,0.293,8.453,0.875c3.025,0.586,5.396,1.188,7.119,1.807l2.473,0.928
				l-0.512,16.812h-9.283l-1.445-7.43c-1.998-0.547-4.365-0.824-7.117-0.824c-3.852,0-6.822,1.291-8.918,3.869
				c-2.1,2.578-3.15,6.445-3.15,11.602c0,5.844,1.084,10.314,3.252,13.406c2.166,3.094,5.379,4.643,9.643,4.643
				c1.373,0,2.68-0.119,3.92-0.361c1.24-0.24,2.439-0.602,3.607-1.084c1.168-0.48,2.08-0.893,2.738-1.236
				c0.646-0.344,1.543-0.859,2.678-1.549C2124.822,3344.335,2125.491,3343.925,2125.697,3343.788z"/>
			<path fill="#9B9C9B" d="M2172.827,3337.911l1.545,8.66c2.75,1.443,6.121,2.168,10.107,2.168c3.506,0,6.463-0.74,8.869-2.221
				c2.404-1.477,3.611-3.521,3.611-6.135c0-1.854-0.861-3.471-2.58-4.846c-1.719-1.377-3.865-2.441-6.445-3.197
				c-2.578-0.758-5.379-1.771-8.402-3.043c-3.029-1.275-5.828-2.645-8.408-4.127c-2.578-1.477-4.729-3.678-6.449-6.598
				c-1.717-2.924-2.57-6.379-2.57-10.369c0-6.943,2.42-12.322,7.268-16.139c4.846-3.814,11.152-5.723,18.926-5.723
				c3.436,0,7.043,0.344,10.828,1.031c3.779,0.688,6.701,1.373,8.766,2.062l3.092,1.031l-0.518,18.77h-9.488l-2.572-8.768
				c-3.096-1.029-6.123-1.545-9.082-1.545c-3.502,0-6.201,0.688-8.092,2.062c-1.893,1.375-2.84,3.129-2.84,5.26
				c0,1.855,0.865,3.471,2.58,4.846c1.723,1.375,3.869,2.461,6.447,3.248c2.576,0.795,5.363,1.807,8.355,3.043
				c2.99,1.236,5.773,2.578,8.352,4.023c2.58,1.443,4.729,3.576,6.447,6.395c1.715,2.818,2.576,6.117,2.576,9.902
				c0,7.492-2.596,13.354-7.787,17.582c-5.189,4.229-11.875,6.344-20.057,6.344c-3.441,0-7.084-0.328-10.934-0.98
				s-6.838-1.324-8.969-2.012l-3.096-0.928v-19.799H2172.827z"/>
			<path fill="#9B9C9B" d="M2228.722,3315.734l-8.252-2.061v-8.252l21.662-0.824l0.926,5.775c0.551-0.48,1.289-1.1,2.219-1.859
				c0.928-0.754,2.715-1.768,5.361-3.041c2.646-1.268,5.209-1.906,7.68-1.906c7.018,0,12.344,2.422,15.99,7.273
				c3.645,4.846,5.467,11.531,5.467,20.057c0,9.764-2.357,17.271-7.066,22.535c-4.709,5.258-11.736,7.887-21.092,7.887
				c-2.406,0-4.986-0.342-7.734-1.029v13.098l9.799,2.373v8.25h-33v-8.25l8.041-2.373V3315.734z M2243.882,3321.407v27.535
				c1.721,1.031,4.398,1.547,8.045,1.547c4.264,0,7.303-1.459,9.129-4.381c1.82-2.924,2.732-7.375,2.732-13.359
				c0-11.342-3.438-17.016-10.312-17.016c-1.996,0-3.785,0.484-5.363,1.445c-1.582,0.961-2.68,1.926-3.299,2.887L2243.882,3321.407z
				"/>
			<path fill="#9B9C9B" d="M2286.995,3305.421l21.344-0.824l0.93,7.117c0.551-0.621,1.305-1.377,2.271-2.27
				c0.961-0.895,2.697-2.096,5.205-3.611c2.506-1.512,4.797-2.268,6.861-2.268c1.646,0,3.246,0.154,4.793,0.465
				c1.545,0.309,2.695,0.633,3.455,0.979l1.029,0.412l-0.824,19.596h-8.971l-1.547-8.764c-1.791,0-3.611,0.477-5.469,1.443
				c-1.857,0.963-3.266,1.922-4.227,2.885l-1.443,1.445v27.434l9.797,2.578v8.25h-33.205v-8.25l8.244-2.578v-33.727l-8.244-2.061
				V3305.421z"/>
			<path fill="#9B9C9B" d="M2337.523,3305.421l23.412-0.824v44.863l7.221,2.578v8.25h-30.633v-8.25l8.252-2.578v-33.727
				l-8.252-2.061V3305.421z M2343.816,3287.579c0-2.818,0.877-5.07,2.633-6.754c1.752-1.684,3.828-2.529,6.234-2.529
				c5.777,0,8.666,3.096,8.666,9.283c0,2.889-0.877,5.174-2.629,6.857s-3.766,2.527-6.037,2.527c-2.818,0-4.998-0.805-6.543-2.424
				C2344.589,3292.927,2343.816,3290.607,2343.816,3287.579z"/>
			<path fill="#9B9C9B" d="M2374.445,3305.421l21.35-0.824l0.719,7.117c0.76-0.621,1.756-1.357,2.994-2.219
				c1.234-0.859,3.521-2.025,6.857-3.508c3.332-1.475,6.377-2.215,9.129-2.215c4.945,0,8.744,1.633,11.393,4.896
				c2.648,3.266,3.975,7.752,3.975,13.461v27.33c0.889,0.277,2.162,0.721,3.814,1.34c1.648,0.621,2.783,1.031,3.404,1.238v8.25
				h-27.85v-8.25l5.465-2.578v-24.959c0-2.408-0.633-4.383-1.904-5.928c-1.271-1.549-2.977-2.32-5.105-2.32
				c-1.926,0-3.799,0.498-5.619,1.492c-1.826,0.998-3.18,1.975-4.078,2.939l-1.34,1.445v27.33l5.365,2.578v8.25h-28.568v-8.25
				l7.941-2.578v-33.727l-7.941-2.061V3305.421z"/>
			<path fill="#9B9C9B" d="M2466.745,3361.318c-5.707,0-9.627-1.838-11.754-5.516c-2.137-3.678-3.197-10.09-3.197-19.234v-19.285
				h-9.594v-9.799l9.594-1.342v-14.23l15.156-2.783v17.014h14.441v11.141h-14.441v23.305c0,3.443,0.383,5.846,1.137,7.221
				c0.758,1.377,2.197,2.064,4.332,2.064c2.475,0,5.191-0.789,8.145-2.375l3.715,7.428
				C2478.226,3359.189,2472.382,3361.318,2466.745,3361.318z"/>
		</g>
		<g>
			<path id="strut-1_4_" fill="#F99D1C" d="M1615.722,3215.726v213.596c0,21.869-17.729,39.6-39.598,39.6
				c-21.873,0-39.6-17.73-39.6-39.6v-213.596c0-21.871,17.727-39.6,39.6-39.6
				C1597.993,3176.126,1615.722,3193.855,1615.722,3215.726L1615.722,3215.726z M1576.124,3198.925
				c-9.277,0-16.801,7.523-16.801,16.801c0,9.275,7.523,16.799,16.801,16.799s16.799-7.523,16.799-16.799
				C1592.923,3206.448,1585.402,3198.925,1576.124,3198.925z M1576.124,3412.521c-9.277,0-16.801,7.521-16.801,16.801
				c0,9.273,7.523,16.797,16.801,16.797s16.799-7.523,16.799-16.797C1592.923,3420.042,1585.402,3412.521,1576.124,3412.521z"/>
			<path id="strut-2_4_" fill="#DC4E3E" d="M1548.128,3401.323l106.904-106.918c15.467-15.465,40.539-15.465,56.004,0
				s15.465,40.541,0,56.006l-106.916,107.023c-15.496,15.465-40.594,15.434-56.053-0.059
				C1532.607,3441.882,1532.634,3416.784,1548.128,3401.323z M1576.124,3412.521c-9.277,0-16.801,7.521-16.801,16.801
				c0,9.273,7.523,16.797,16.801,16.797s16.799-7.523,16.799-16.797C1592.923,3420.042,1585.402,3412.521,1576.124,3412.521z
				 M1682.919,3305.722c-9.277,0-16.799,7.523-16.799,16.801c0,9.279,7.521,16.801,16.799,16.801
				c9.281,0,16.801-7.521,16.801-16.801C1699.72,3313.245,1692.2,3305.722,1682.919,3305.722z"/>
			<path id="strut-3_4_" fill="#694D9F" d="M1710.917,3294.525l106.916,106.908c15.465,15.496,15.443,40.592-0.055,56.059
				c-15.496,15.465-40.594,15.439-56.055-0.055l-106.799-106.797c-15.496-15.461-15.52-40.559-0.061-56.053
				C1670.325,3279.091,1695.421,3279.068,1710.917,3294.525z M1682.919,3305.722c-9.277,0-16.799,7.523-16.799,16.801
				c0,9.279,7.521,16.801,16.799,16.801c9.281,0,16.801-7.521,16.801-16.801C1699.72,3313.245,1692.2,3305.722,1682.919,3305.722z
				 M1789.72,3412.521c-9.279,0-16.799,7.521-16.799,16.801c0,9.273,7.52,16.797,16.799,16.797c9.277,0,16.801-7.523,16.801-16.797
				C1806.521,3420.042,1798.997,3412.521,1789.72,3412.521z"/>
			<path id="strut-4_4_" fill="#30B4C5" d="M1750.118,3429.322v-213.596c0-21.871,17.729-39.6,39.602-39.6
				c21.871,0,39.598,17.729,39.598,39.6v213.596c0,21.869-17.727,39.6-39.598,39.6
				C1767.847,3468.917,1750.118,3451.191,1750.118,3429.322L1750.118,3429.322z M1789.72,3198.925
				c-9.279,0-16.799,7.523-16.799,16.801c0,9.275,7.52,16.799,16.799,16.799c9.277,0,16.801-7.523,16.801-16.799
				C1806.521,3206.448,1798.997,3198.925,1789.72,3198.925z M1789.72,3412.521c-9.279,0-16.799,7.521-16.799,16.801
				c0,9.273,7.52,16.797,16.799,16.797c9.277,0,16.801-7.523,16.801-16.797C1806.521,3420.042,1798.997,3412.521,1789.72,3412.521z"
				/>
			<path id="join-1_4_" fill="#D02E27" d="M1615.722,3333.923v95.398c0.006,21.869-17.715,39.604-39.588,39.609
				c-21.871,0.008-39.605-17.719-39.609-39.588c-0.004-10.51,4.17-20.588,11.604-28.02L1615.722,3333.923z M1576.124,3412.521
				c-9.277,0-16.801,7.521-16.801,16.801c0,9.273,7.523,16.797,16.801,16.797s16.799-7.523,16.799-16.797
				C1592.923,3420.042,1585.402,3412.521,1576.124,3412.521z"/>
			<path id="join-2_4_" fill="#58152A" d="M1682.919,3378.527l-27.994-28.008c-15.432-15.494-15.385-40.568,0.109-56.002
				c15.494-15.436,40.568-15.385,56.002,0.107c15.391,15.455,15.391,40.443,0,55.895L1682.919,3378.527z M1682.919,3305.722
				c-9.277,0-16.799,7.523-16.799,16.801c0,9.279,7.521,16.801,16.799,16.801c9.281,0,16.801-7.521,16.801-16.801
				C1699.72,3313.245,1692.2,3305.722,1682.919,3305.722z"/>
			<path id="join-3_4_" fill="#263C82" d="M1750.118,3333.923v95.398c0.062,21.869,17.84,39.551,39.709,39.49
				c21.871-0.062,39.549-17.84,39.49-39.711c-0.029-10.408-4.154-20.385-11.484-27.777L1750.118,3333.923z M1789.72,3412.521
				c9.277,0,16.801,7.521,16.801,16.801c0,9.273-7.523,16.797-16.801,16.797c-9.279,0-16.799-7.523-16.799-16.797
				C1772.919,3420.042,1780.441,3412.521,1789.72,3412.521z"/>
		</g>
	</g>
</g>
</svg>
