<?xml version="1.0" encoding="utf-8"?>
<!-- Generator: Adobe Illustrator 15.0.0, SVG Export Plug-In . SVG Version: 6.00 Build 0)  -->
<!DOCTYPE svg PUBLIC "-//W3C//DTD SVG 1.1//EN" "http://www.w3.org/Graphics/SVG/1.1/DTD/svg11.dtd">
<svg version="1.1" id="logo" onload="init()" xmlns="http://www.w3.org/2000/svg" xmlns:xlink="http://www.w3.org/1999/xlink"
	 x="0px" y="0px" width="644.965px" height="645.967px" viewBox="1687.919 1552.527 644.965 645.967"
	 enable-background="new 1687.919 1552.527 644.965 645.967" xml:space="preserve">
<title>WebPlatform.org Logo</title>
<script  type="text/ecmascript">
	<![CDATA[  
    var pairs = [];
    var colorA = ["default","orange","red","purple","green","gray","alt"];
    var bgA = ["black","white","#dedfde","#f1ecd7"];
    var outlineA = ["none","inline"];
    var sizeA = ["10","35","75","130","200","100%"];

    function init() {
      // alert("init")
      var params = window.location.href.split("?")[1];
      if (params.length) {
        var allpairs = params.split("&");
        //alert("allpairs: " + allpairs.length)
        for (var p = 0; allpairs.length > p; p++) {
          var eachP = allpairs[p].split("=");
          pairs[ eachP[0] ] = eachP[1];

          switch (eachP[0] ) {
            case "c":
              colors( eachP[1] );
              break;
            case "b":
              changeBG( eachP[1] );
              break;
            case "o":
              toggleOutline( eachP[1] );
              break;
            case "s":
              resize( eachP[1] );
              break;
          }
        }
      }
    }

    function setLocation() {
      if(window.history.pushState) {
        var params = ""; 
        for (var i in pairs) {
          //alert("setLocation\n" + i);
          var eachP = i + "=" + pairs[i];
          params += eachP + "&";
        }
        params = params.slice(0, -1);
        var baseURI = window.location.href.split("?")[0];
        //window.location.href = baseURI + "?" + params;
        window.history.pushState("parameters", "Title", baseURI + "?" + params);
      }
    }

    function colors( cindex ) {
      var color = colorA[ cindex ];
      var logo = document.getElementById("logo");
      logo.setAttribute("class", color);
      pairs["c"] = cindex;
      setLocation();
    }

    function changeBG( bindex ) {
      var color = bgA[ bindex ];
      var b = document.getElementById("background");
      b.setAttribute("fill", color);
      pairs["b"] = bindex;
      setLocation();
    }

    function toggleOutline( oindex ) {
      var o = document.getElementById("outline");
      var d;
      if (null != oindex) {
        d = outlineA[ oindex ];
      } else {
        if ("none" != o.getAttribute("display")) {
          d = "none";
          oindex = 0;
        } else {
          d = "inline";
          oindex = 1;
        }
      }

      o.setAttribute("display", d);
      pairs["o"] = oindex;
      setLocation();
    }

    function resize( sindex ) {
      var size = sizeA[ sindex ];
      var logo = document.getElementById("logo");
      logo.setAttribute("width", size);
      logo.setAttribute("height", size);
      pairs["s"] = sindex;
      setLocation();
    }
  
		
		]]>
</script>
<g>
	<g>
		<g>
			<path fill="#58595B" d="M1772.03,2093.306v-7.975l6.874-2.291v-43.533l-6.874-2.75v-7.605l21.079-0.459h8.707
				c9.286,0,16.466,2.689,21.535,8.064c5.072,5.377,7.608,13.166,7.608,23.371c0,10.266-2.749,18.361-8.248,24.287
				s-12.923,8.891-22.271,8.891H1772.03z M1793.109,2039.507v43.074h7.606c4.766,0,8.433-1.695,10.998-5.086
				c2.566-3.391,3.85-9.025,3.85-16.91c0-7.453-1.208-12.83-3.621-16.129c-2.414-3.299-5.942-4.949-10.584-4.949H1793.109z"/>
			<path fill="#58595B" d="M1862.119,2042.9c7.392,0,13.091,2.152,17.092,6.461c4.001,4.305,6.003,10.4,6.003,18.283
				c0,8.188-2.215,14.664-6.644,19.43c-4.431,4.766-10.374,7.148-17.826,7.148c-15.581,0-23.37-8.402-23.37-25.203
				c0-8.188,2.229-14.588,6.69-19.201C1848.524,2045.204,1854.543,2042.9,1862.119,2042.9z M1861.661,2053.437
				c-3.482,0-6.035,1.133-7.653,3.393c-1.619,2.262-2.428,6.17-2.428,11.73c0,5.256,0.763,9.09,2.291,11.502
				c1.525,2.414,3.971,3.619,7.331,3.619c3.359,0,5.834-1.189,7.425-3.574c1.586-2.383,2.382-6.383,2.382-12.006
				c0-4.949-0.749-8.629-2.245-11.041C1867.265,2054.646,1864.899,2053.437,1861.661,2053.437z"/>
			<path fill="#58595B" d="M1930.122,2078.64l4.582,7.791c-5.928,5.193-12.496,7.791-19.705,7.791c-7.516,0-13.366-2.199-17.55-6.6
				c-4.188-4.398-6.279-10.508-6.279-18.33c0-8.188,2.214-14.631,6.646-19.336c4.429-4.705,10.614-7.057,18.56-7.057
				c2.32,0,4.824,0.26,7.515,0.777c2.688,0.52,4.795,1.055,6.322,1.604l2.201,0.826l-0.459,14.938h-8.249l-1.282-6.598
				c-1.773-0.488-3.881-0.732-6.324-0.732c-3.423,0-6.064,1.145-7.927,3.436c-1.864,2.291-2.796,5.727-2.796,10.311
				c0,5.193,0.962,9.164,2.887,11.914s4.78,4.125,8.57,4.125c1.221,0,2.381-0.107,3.481-0.32c1.101-0.215,2.169-0.537,3.207-0.963
				c1.04-0.428,1.849-0.793,2.429-1.1c0.581-0.307,1.376-0.766,2.384-1.375C1929.343,2079.13,1929.939,2078.763,1930.122,2078.64z"
				/>
			<path fill="#9B9C9B" d="M1972.002,2073.417l1.374,7.699c2.443,1.281,5.438,1.924,8.982,1.924c3.115,0,5.743-0.656,7.882-1.971
				c2.138-1.314,3.208-3.131,3.208-5.453c0-1.648-0.766-3.084-2.292-4.307s-3.437-2.168-5.728-2.84
				c-2.291-0.674-4.781-1.574-7.469-2.705c-2.69-1.129-5.178-2.352-7.471-3.666c-2.291-1.314-4.2-3.268-5.727-5.865
				c-1.529-2.598-2.291-5.666-2.291-9.211c0-6.172,2.153-10.953,6.46-14.344c4.308-3.391,9.913-5.084,16.818-5.084
				c3.054,0,6.262,0.305,9.622,0.914c3.359,0.611,5.958,1.225,7.791,1.834l2.75,0.916l-0.46,16.68h-8.431l-2.291-7.789
				c-2.75-0.918-5.439-1.377-8.066-1.377c-3.115,0-5.514,0.613-7.194,1.836c-1.68,1.221-2.52,2.779-2.52,4.672
				c0,1.65,0.764,3.086,2.292,4.309c1.525,1.223,3.437,2.184,5.727,2.887c2.291,0.703,4.766,1.604,7.424,2.703
				c2.657,1.1,5.132,2.291,7.424,3.574s4.2,3.178,5.728,5.684c1.526,2.504,2.292,5.438,2.292,8.797c0,6.66-2.309,11.869-6.92,15.627
				c-4.613,3.758-10.556,5.637-17.825,5.637c-3.057,0-6.294-0.293-9.716-0.871c-3.422-0.58-6.078-1.176-7.973-1.787l-2.749-0.824
				v-17.598H1972.002z"/>
			<path fill="#9B9C9B" d="M2021.675,2053.714l-7.332-1.834v-7.332l19.246-0.732l0.824,5.131c0.488-0.426,1.146-0.977,1.971-1.65
				c0.825-0.672,2.413-1.57,4.766-2.703c2.352-1.129,4.628-1.693,6.827-1.693c6.232,0,10.966,2.152,14.206,6.461
				c3.238,4.305,4.857,10.248,4.857,17.826c0,8.674-2.094,15.35-6.277,20.023c-4.186,4.674-10.434,7.012-18.744,7.012
				c-2.139,0-4.429-0.307-6.871-0.916v11.639l8.706,2.107v7.332h-29.327v-7.332l7.148-2.107V2053.714z M2035.148,2058.753v24.471
				c1.525,0.916,3.908,1.373,7.148,1.373c3.787,0,6.49-1.297,8.11-3.895c1.617-2.596,2.43-6.553,2.43-11.867
				c0-10.082-3.057-15.121-9.166-15.121c-1.774,0-3.361,0.428-4.766,1.283c-1.405,0.855-2.382,1.711-2.933,2.564L2035.148,2058.753z
				"/>
			<path fill="#9B9C9B" d="M2073.455,2044.548l18.972-0.732l0.824,6.324c0.488-0.551,1.159-1.225,2.016-2.018
				s2.398-1.863,4.629-3.207c2.229-1.344,4.263-2.016,6.095-2.016c1.466,0,2.887,0.137,4.261,0.41
				c1.375,0.277,2.398,0.566,3.07,0.873l0.916,0.365l-0.732,17.412h-7.974l-1.373-7.787c-1.591,0-3.21,0.426-4.859,1.281
				c-1.649,0.857-2.901,1.711-3.757,2.566l-1.283,1.281v24.379l8.707,2.293v7.332h-29.511v-7.332l7.331-2.293v-29.967l-7.331-1.834
				V2044.548z"/>
			<path fill="#9B9C9B" d="M2118.363,2044.548l20.804-0.732v39.865l6.415,2.293v7.332h-27.219v-7.332l7.332-2.293v-29.967
				l-7.332-1.834V2044.548z M2123.952,2028.693c0-2.504,0.778-4.504,2.337-6.002c1.558-1.498,3.405-2.246,5.544-2.246
				c5.133,0,7.699,2.75,7.699,8.248c0,2.566-0.779,4.598-2.338,6.094c-1.557,1.498-3.344,2.246-5.361,2.246
				c-2.505,0-4.444-0.717-5.818-2.154C2124.64,2033.445,2123.952,2031.382,2123.952,2028.693z"/>
			<path fill="#9B9C9B" d="M2151.17,2044.548l18.972-0.732l0.641,6.324c0.672-0.551,1.558-1.207,2.658-1.971
				c1.1-0.764,3.131-1.803,6.095-3.117c2.963-1.314,5.666-1.971,8.111-1.971c4.398,0,7.772,1.451,10.126,4.354
				c2.352,2.904,3.528,6.889,3.528,11.959v24.287c0.794,0.246,1.925,0.643,3.392,1.191c1.466,0.551,2.473,0.916,3.025,1.102v7.332
				h-24.746v-7.332l4.856-2.293v-22.178c0-2.139-0.564-3.895-1.694-5.27c-1.132-1.375-2.645-2.061-4.538-2.061
				c-1.71,0-3.375,0.441-4.993,1.326c-1.62,0.887-2.826,1.758-3.621,2.611l-1.191,1.283v24.287l4.766,2.293v7.332h-25.386v-7.332
				l7.057-2.293v-29.967l-7.057-1.834V2044.548z"/>
			<path fill="#9B9C9B" d="M2233.194,2094.222c-5.072,0-8.556-1.635-10.448-4.904c-1.895-3.268-2.841-8.967-2.841-17.092v-17.139
				h-8.522v-8.705l8.522-1.191v-12.648l13.473-2.475v15.123h12.83v9.896h-12.83v20.713c0,3.057,0.335,5.193,1.009,6.416
				c0.671,1.223,1.953,1.832,3.848,1.832c2.2,0,4.613-0.701,7.24-2.109l3.299,6.6
				C2243.396,2092.327,2238.201,2094.222,2233.194,2094.222z"/>
		</g>
		<path id="strut-1_1_" fill="#F99D1C" d="M1940.302,1678.693v226.848c0,23.225-18.83,42.055-42.058,42.055
			c-23.227,0-42.056-18.83-42.056-42.055v-226.848c0-23.227,18.829-42.055,42.056-42.055
			C1921.472,1636.638,1940.302,1655.466,1940.302,1678.693L1940.302,1678.693z M1898.244,1660.851
			c-9.854,0-17.841,7.988-17.841,17.842s7.987,17.842,17.841,17.842c9.854,0,17.842-7.988,17.842-17.842
			S1908.099,1660.851,1898.244,1660.851z M1898.244,1887.697c-9.854,0-17.841,7.988-17.841,17.842s7.987,17.842,17.841,17.842
			c9.854,0,17.842-7.988,17.842-17.842S1908.099,1887.697,1898.244,1887.697z"/>
		<path id="strut-2_1_" fill="#DC4E3E" d="M1868.513,1875.806l113.537-113.551c16.425-16.424,43.055-16.424,59.478,0
			c16.425,16.426,16.425,43.053,0,59.479l-113.551,113.664c-16.455,16.42-43.107,16.393-59.527-0.064
			C1852.029,1918.88,1852.057,1892.226,1868.513,1875.806z M1898.244,1887.697c-9.854,0-17.841,7.988-17.841,17.842
			s7.987,17.842,17.841,17.842c9.854,0,17.842-7.988,17.842-17.842S1908.099,1887.697,1898.244,1887.697z M2011.668,1774.275
			c-9.854,0-17.842,7.986-17.842,17.842c0,9.854,7.988,17.842,17.842,17.842c9.854,0,17.841-7.988,17.841-17.842
			C2029.509,1782.261,2021.523,1774.275,2011.668,1774.275z"/>
		<path id="strut-3_1_" fill="#694D9F" d="M2041.401,1762.382l113.55,113.539c16.424,16.455,16.398,43.109-0.059,59.535
			c-16.455,16.424-43.109,16.398-59.533-0.059l-113.424-113.422c-16.455-16.422-16.483-43.072-0.063-59.527
			C1998.293,1745.991,2024.945,1745.964,2041.401,1762.382z M2011.668,1774.275c-9.854,0-17.842,7.986-17.842,17.842
			c0,9.854,7.988,17.842,17.842,17.842c9.854,0,17.841-7.988,17.841-17.842C2029.509,1782.261,2021.523,1774.275,2011.668,1774.275z
			 M2125.091,1887.697c-9.854,0-17.841,7.988-17.841,17.842s7.987,17.842,17.841,17.842s17.842-7.988,17.842-17.842
			S2134.945,1887.697,2125.091,1887.697z"/>
		<path id="strut-4_1_" fill="#30B4C5" d="M2083.035,1905.54v-226.848c0-23.227,18.829-42.055,42.056-42.055
			c23.228,0,42.055,18.828,42.055,42.055v226.848c0,23.225-18.827,42.055-42.055,42.055
			C2101.865,1947.593,2083.035,1928.765,2083.035,1905.54L2083.035,1905.54z M2125.091,1660.851
			c-9.854,0-17.841,7.988-17.841,17.842s7.987,17.842,17.841,17.842s17.842-7.988,17.842-17.842
			S2134.945,1660.851,2125.091,1660.851z M2125.091,1887.697c-9.854,0-17.841,7.988-17.841,17.842s7.987,17.842,17.841,17.842
			s17.842-7.988,17.842-17.842S2134.945,1887.697,2125.091,1887.697z"/>
		<path id="join-1_1_" fill="#D02E27" d="M1940.302,1804.224v101.316c0.005,23.225-18.818,42.059-42.045,42.066
			c-23.227,0.006-42.062-18.816-42.066-42.045c-0.003-11.162,4.429-21.865,12.323-29.756L1940.302,1804.224z M1898.244,1887.697
			c-9.854,0-17.841,7.988-17.841,17.842s7.987,17.842,17.841,17.842c9.854,0,17.842-7.988,17.842-17.842
			S1908.099,1887.697,1898.244,1887.697z"/>
		<path id="join-2_1_" fill="#58152A" d="M2011.668,1851.593l-29.731-29.746c-16.392-16.455-16.34-43.084,0.116-59.475
			c16.455-16.391,43.083-16.338,59.475,0.117c16.348,16.408,16.348,42.947,0,59.357L2011.668,1851.593z M2011.668,1774.275
			c-9.854,0-17.842,7.986-17.842,17.842c0,9.854,7.988,17.842,17.842,17.842c9.854,0,17.841-7.988,17.841-17.842
			C2029.509,1782.261,2021.523,1774.275,2011.668,1774.275z"/>
		<path id="join-3_1_" fill="#263C82" d="M2083.035,1804.224v101.316c0.065,23.225,18.945,42.002,42.173,41.936
			c23.227-0.062,42.002-18.943,41.938-42.172c-0.029-11.051-4.41-21.648-12.195-29.498L2083.035,1804.224z M2125.091,1887.697
			c9.854,0,17.842,7.988,17.842,17.842s-7.988,17.842-17.842,17.842s-17.841-7.988-17.841-17.842
			C2107.249,1895.685,2115.238,1887.697,2125.091,1887.697z"/>
	</g>
</g>
</svg>
