<?xml version="1.0"?><svg width="500" height="200" xmlns="http://www.w3.org/2000/svg">
 <metadata id="metadata7">image/svg+xml</metadata>
 <g>
  <title>Layer 1</title>
  <g id="layer1">
   <g transform="matrix(2.19236, 0, 0, 2.19236, 7.01978, -160.549)" id="g3653">
    <path fill="#bfbfbf" fill-rule="nonzero" stroke-width="2" stroke-linecap="round" stroke-linejoin="round" marker-start="none" marker-mid="none" marker-end="none" stroke-miterlimit="4" stroke-dashoffset="0" d="m190.127533,84.135437c-8.983765,0.125427 -17.158386,4.483307 -23.15625,9.90625c-0.010422,-0.000053 -0.020828,-0.000053 -0.03125,0c-6.689972,6.128326 -11.694061,9.296593 -14.53125,10.375c0.071793,-0.02137 -0.160507,0.071472 -0.03125,0.03125c-0.052567,0.01963 -0.10466,0.040466 -0.15625,0.0625l0,-0.03125c-0.838577,0.246986 -1.518204,0.34375 -1.9375,0.34375l-0.28125,0l-85.812492,0.1875l-0.343754,0l-0.71875,0c-5.868149,0 -11.406281,-3.125031 -16.25,-7.96875c-0.01022,-0.020943 -0.02063,-0.041763 -0.03125,-0.0625c-6.591389,-6.355301 -15.805187,-7.751053 -24.031248,-6.375c-0.041849,0.009682 -0.083521,0.020103 -0.125,0.03125c-12.091451,2.416748 -20.998451,12.403069 -23.281251,24.5c-0.23274,1.23217 0.18521,2.49736 1.10614,3.348419c0.92092,0.851059 2.21509,1.168114 3.42511,0.839081l1.125,-0.3125l1.8125,-0.5l0.0625,0l16.125,-3.28125c0.05311,-0.010872 0.077669,-0.091202 0.65625,0.375c0.578581,0.466202 1.424471,1.473831 2.15625,2.84375c1.45907,2.731453 2.53598,6.759064 2.625,9.75c0.000271,0.009201 -0.000259,0.022079 0,0.03125c-0.05409,1.24617 -0.315029,2.247574 -0.53125,2.6875c-0.218639,0.444855 -0.15044,0.288071 -0.125,0.28125l-6.8125,1.78125c-0.063391,0.029434 -0.12591,0.060715 -0.1875,0.09375c-0.01042,-0.000046 -0.02083,-0.000046 -0.03125,0l-0.1875,0.0625l-12.593751,3.375c-1.185009,0.317535 -2.13031,1.210693 -2.51448,2.375793c-0.38417,1.165115 -0.15551,2.445374 0.60823,3.405457c0.24729,0.306137 0.50479,0.592773 0.75,0.875c3.63586,4.184586 8.28472,7.368256 13.5,9.0625c0.01194,0.004135 0.01915,-0.004105 0.03125,0c0.0121,0.004105 0.01899,-0.004074 0.03125,0c0.01947,0.006454 0.01137,0.024887 0.03125,0.03125c0.01042,0.000046 0.02083,0.000046 0.03125,0c4.55393,1.435806 9.383089,1.635559 13.968748,0.8125c0.010479,-0.010345 0.020901,-0.020767 0.03125,-0.03125c4.908089,-0.924835 9.608749,-2.964783 13.28125,-6.5c5.64967,-5.015305 11.303089,-10.341019 17.281254,-10.78125l48.09375,0c0.177612,0.002563 0.355171,-0.007874 0.53125,-0.03125l1.1875,0c0.155411,0.020493 0.311989,0.030945 0.46875,0.03125l35.968742,0.1875c0.010422,0.000046 0.020828,0.000046 0.03125,0l0.78125,0c2.021606,0 3.975647,0.346786 5.90625,1c0.021988,0.007446 0.040527,0.023727 0.0625,0.03125c4.228317,1.732132 8.476257,5.194992 12.28125,9c0.03035,0.042328 0.061615,0.084015 0.09375,0.125c7.409103,6.773438 17.153854,8.435654 26.25,6.875c0.031387,-0.009995 0.062637,-0.020416 0.09375,-0.03125c13.209229,-2.640167 22.938995,-13.541245 25.4375,-26.78125c0.232742,-1.23217 -0.185211,-2.49736 -1.10614,-3.348419c-0.920914,-0.851059 -2.215088,-1.168114 -3.42511,-0.839081l-1.25,0.34375l-2.34375,0.59375l-17.59375,3.59375c-0.189896,0.038857 -0.360733,0.067734 -1.0625,-0.5c-0.701767,-0.567734 -1.642426,-1.726967 -2.46875,-3.28125c-1.634033,-3.073532 -2.797287,-7.535378 -2.90625,-10.90625c0.057312,-1.426872 0.31871,-2.637573 0.59375,-3.21875c0.283264,-0.598572 0.295624,-0.509979 0.375,-0.53125l7.75,-2.03125c0.000046,-0.010422 0.000046,-0.020828 0,-0.03125l14.1875,-3.8125c1.185013,-0.317528 2.13031,-1.210693 2.514481,-2.375801c0.384171,-1.165108 0.155502,-2.445358 -0.608231,-3.405449c-0.299393,-0.370621 -0.577408,-0.666931 -0.8125,-0.9375c-3.985916,-4.592934 -9.082581,-8.055367 -14.78125,-9.90625c-0.020737,-0.010612 -0.041565,-0.021027 -0.0625,-0.03125c-0.021149,-0.006813 -0.010529,0.006401 -0.03125,0c-0.031113,-0.010841 -0.062363,-0.021263 -0.09375,-0.03125c1.451294,0.385513 1.441223,0.363457 -0.0625,-0.03125l0,0.03125c-3.013443,-1.049561 -5.977234,-1.416344 -8.9375,-1.375z" id="path3650"/>
    <path fill="#bfbfbf" fill-rule="nonzero" stroke-width="2" stroke-linecap="round" stroke-linejoin="round" marker-start="none" marker-mid="none" marker-end="none" stroke-miterlimit="4" stroke-dashoffset="0" d="m184.327499,86.25c-4.822433,0.908707 -9.273483,2.899933 -12.65625,6.15625c-10.863037,10.457031 -17.970383,14.1875 -21.625,14.1875l-87.171249,0.0625c-7.144482,0 -13.539829,-3.758583 -18.8125,-9.03125c-4.333248,-4.333252 -10.6675,-6.087013 -16.90625,-5.875c-0.524599,0.01783 -1.037861,0.069069 -1.5625,0.125c0.308649,-0.020027 0.629959,-0.031181 0.9375,-0.03125c10.147961,-0.002327 19.596001,10.765671 21.625,25.1875c2.081261,14.793274 -4.406952,28.078217 -14.59375,30.46875c4.358509,-0.821274 8.38018,-2.619461 11.4375,-5.5625c9.81797,-9.451004 16.22823,-11.78125 19.53125,-11.78125l87.358749,-0.0625c7.904984,0 14.978577,5.509827 20.8125,11.34375c4.79451,4.794495 11.815918,6.734573 18.71875,6.5c0.580444,-0.019714 1.13826,-0.063126 1.71875,-0.125c-0.341507,0.022156 -0.690979,0.031174 -1.03125,0.03125c-11.228165,0.002579 -21.69252,-11.91803 -23.9375,-27.875c-2.302795,-16.36795 4.885117,-31.073753 16.15625,-33.71875z" id="rect2409"/>
    <path fill="#bfbfbf" fill-rule="nonzero" stroke-width="2" stroke-linecap="round" stroke-linejoin="round" marker-start="none" marker-mid="none" marker-end="none" stroke-miterlimit="4" stroke-dashoffset="0" filter="url(#filter3512)" d="m28.65625,91.75c-0.24642,0.00856 -0.506229,0.04171 -0.75,0.0625c-0.101879,0.01075 -0.211321,0.015213 -0.3125,0.03125c0.148451,-0.004936 0.292419,0.000031 0.4375,0c1.14518,-0.000267 2.289379,0.162109 3.40625,0.4375c-0.17856,-0.059998 -0.34951,-0.128799 -0.53125,-0.1875c1.32869,0.245117 2.24165,0.640099 3.03125,1.03125c0.101231,0.050148 0.214828,0.106796 0.3125,0.15625c7.329479,3.371109 13.378349,12.422722 14.9375,23.75c0.068001,0.494011 0.10677,0.978447 0.15625,1.46875c-0.022541,-3.57621 -0.689739,-6.968987 -1.34375,-9.375c-2.093498,-7.701607 -5.562191,-10.050537 -4.03125,-9.34375c0.496361,0.39579 1.01862,0.820999 1.21875,1c5.158588,4.61412 11.416359,8.380569 18.40625,7.9375l88.858749,-0.6875c0.183838,0.005089 0.356979,0.017982 0.5625,0c3.082748,-0.269707 8.616013,-3.314018 16.8125,-13.90625c-9.831406,9.841362 -16.336639,12.34375 -19.78125,12.34375l-0.28125,0l-86.171249,0.1875l-0.71875,0c-7.144482,0 -13.539829,-3.758583 -18.8125,-9.03125c-3.791592,-3.791588 -9.11137,-5.622101 -14.5625,-5.875c-0.28034,-0.013008 -0.56292,0.004791 -0.84375,0zm-1.0625,0.09375c-0.119341,0.011742 -0.229589,0.024078 -0.34375,0.03125c0.073641,0.003708 0.145201,-0.004837 0.21875,0c0.01055,-0.000191 0.020651,0.00042 0.03125,0c0.032169,-0.001289 0.061569,-0.030182 0.09375,-0.03125z" id="path3245"/>
    <path fill="#bfbfbf" fill-rule="nonzero" stroke-width="2" stroke-linecap="round" stroke-linejoin="round" marker-start="none" marker-mid="none" marker-end="none" stroke-miterlimit="4" stroke-dashoffset="0" filter="url(#filter3524)" d="m61.84375,128.875c-2.786171,0.223404 -7.779549,2.726593 -15.1875,11.5c8.88559,-8.151474 14.76178,-10.21875 17.875,-10.21875l48.375,0l-50.53125,-1.28125c-0.166149,-0.004211 -0.345501,-0.014893 -0.53125,0z" id="path3262"/>
    <path fill="#bfbfbf" fill-rule="nonzero" stroke-width="2" stroke-linecap="round" stroke-linejoin="round" marker-start="none" marker-mid="none" marker-end="none" stroke-miterlimit="4" stroke-dashoffset="0" filter="url(#filter3335)" d="m69.581879,113.625c-2.662796,0.268806 -4.71875,2.514 -4.71875,5.25c0,2.918388 2.331604,5.28125 5.25,5.28125l78.507492,0c2.918411,0 5.25,-2.362862 5.25,-5.28125c0,-2.736 -2.055954,-4.981194 -4.71875,-5.25c-0.177505,-0.017921 -0.348846,0 -0.53125,0l-78.507492,0c-0.182396,0 -0.353737,-0.017921 -0.53125,0z" id="rect3265"/>
    <path fill="#bfbfbf" fill-rule="nonzero" stroke-width="2" stroke-linecap="round" stroke-linejoin="round" marker-start="none" marker-mid="none" marker-end="none" stroke-miterlimit="4" stroke-dashoffset="0" filter="url(#filter3528)" id="path3356" d="m189.746735,147.938187c0.272644,-0.010086 0.560104,-0.04921 0.829819,-0.07373c0.112732,-0.01268 0.233826,-0.017944 0.345779,-0.036865c-0.164246,0.005814 -0.323547,-0.000046 -0.48407,0c-1.26709,0.000305 -2.533081,-0.191269 -3.768829,-0.51619c0.197556,0.070786 0.386703,0.151962 0.587799,0.221222c-1.470139,-0.289215 -2.480255,-0.755234 -3.353928,-1.216736c-0.112,-0.059174 -0.237686,-0.126022 -0.345749,-0.184357c-8.10968,-3.977448 -14.802429,-14.657104 -16.527542,-28.021751c-0.075241,-0.58287 -0.118134,-1.154442 -0.172867,-1.732933c0.024933,4.219444 0.763153,8.22245 1.486771,11.061226c2.316345,9.086845 6.154266,11.858269 4.460358,11.024345c-0.549179,-0.46698 -1.127045,-0.968674 -1.34848,-1.179855c-5.707703,-5.444031 -12.631577,-9.887939 -20.365509,-9.365173l-35.959473,2.244064l35.959473,0.189407l0.795258,0c7.904984,0 14.981079,4.434601 20.815002,10.65564c4.19519,4.473557 10.081238,6.633316 16.112625,6.931686c0.310181,0.015366 0.622833,-0.005646 0.933563,0zm1.175598,-0.110596c0.132034,-0.013855 0.254028,-0.028427 0.380341,-0.036865c-0.081482,-0.004395 -0.16066,0.005692 -0.24205,0c-0.011658,0.000214 -0.022842,-0.000504 -0.034561,0c-0.035599,0.001511 -0.06813,0.035599 -0.103729,0.036865z"/>
    <g id="g3532">
     <path fill="#bfbfbf" fill-rule="nonzero" stroke-width="2" stroke-linecap="round" stroke-linejoin="round" marker-start="none" marker-mid="none" marker-end="none" stroke-miterlimit="4" stroke-dashoffset="0" filter="url(#filter3504)" id="path3222" d="m22.8125,108.53125c-0.237471,0.014839 -0.47785,0.060448 -0.71875,0.125l-16.40625,4.375l16.40625,-3.34375c5.183121,-1.060707 9.65873,9.314369 9.78125,16.6875c0.28952,-7.30928 -3.95332,-18.163002 -9.0625,-17.84375z"/>
     <path fill="#bfbfbf" fill-rule="nonzero" stroke-width="2" stroke-linecap="round" stroke-linejoin="round" marker-start="none" marker-mid="none" marker-end="none" stroke-miterlimit="4" stroke-dashoffset="0" id="path3198" d="m26.53125,91.84375c-0.307541,0.000069 -0.628851,0.011223 -0.9375,0.03125c-0.030451,0.00325 -0.06329,-0.003357 -0.09375,0c-0.33959,0.024246 -0.65959,0.07605 -1,0.125c-0.447161,0.064301 -0.905519,0.131157 -1.34375,0.21875c-10.53196,2.105049 -18.40575,10.858414 -20.4375,21.625l19.375,-5.1875c7.70882,-2.065567 13.85067,22.076157 6.4375,24.0625l-19.8125,5.3125c4.24739,5.257996 10.19952,8.805145 16.75,9.71875c0.04067,0.005676 0.08428,-0.005463 0.125,0c2.278481,0.133575 4.16905,0.165115 5.53125,0.09375c0.46287,-0.024246 0.878342,-0.07605 1.21875,-0.125c0.413349,-0.059433 0.81081,-0.141876 1.21875,-0.21875c10.186798,-2.390533 16.675011,-15.675476 14.59375,-30.46875c-2.028999,-14.421829 -11.477039,-25.189827 -21.625,-25.1875z"/>
     <path fill="#bfbfbf" fill-rule="nonzero" stroke-width="2" stroke-linecap="round" stroke-linejoin="round" marker-start="none" marker-mid="none" marker-end="none" stroke-miterlimit="4" stroke-dashoffset="0" d="m26.53125,91.84375c-0.307541,0.000069 -0.628851,0.011223 -0.9375,0.03125c-0.030451,0.00325 -0.06329,-0.003357 -0.09375,0c-0.33959,0.024246 -0.65959,0.07605 -1,0.125c-0.447161,0.064301 -0.905519,0.131157 -1.34375,0.21875c-10.53196,2.105049 -18.40575,10.858414 -20.4375,21.625l19.375,-5.1875c7.70882,-2.065567 13.85067,22.076157 6.4375,24.0625l-19.8125,5.3125c4.24739,5.257996 10.19952,8.805145 16.75,9.71875c0.04067,0.005676 0.08428,-0.005463 0.125,0c2.278481,0.133575 4.16905,0.165115 5.53125,0.09375c0.46287,-0.024246 0.878342,-0.07605 1.21875,-0.125c0.413349,-0.059433 0.81081,-0.141876 1.21875,-0.21875c10.186798,-2.390533 16.675011,-15.675476 14.59375,-30.46875c-2.028999,-14.421829 -11.477039,-25.189827 -21.625,-25.1875z" id="path3476"/>
     <path fill="#bfbfbf" fill-rule="nonzero" stroke-width="2" stroke-linecap="round" stroke-linejoin="round" marker-start="none" marker-mid="none" marker-end="none" stroke-miterlimit="4" stroke-dashoffset="0" filter="url(#filter3492)" d="m26.53125,91.84375c-0.307541,0.000069 -0.628851,0.011223 -0.9375,0.03125c-0.030451,0.00325 -0.06329,-0.003357 -0.09375,0c-0.33959,0.024246 -0.65959,0.07605 -1,0.125c-0.447161,0.064301 -0.905519,0.131157 -1.34375,0.21875c-10.53196,2.105049 -18.40575,10.858414 -20.4375,21.625l1.125,-0.3125c2.39744,-10.027206 9.63485,-18.364059 19.125,-20.96875c0.4177,-0.114647 0.85504,-0.220367 1.28125,-0.3125c0.324471,-0.070137 0.613819,-0.141899 0.9375,-0.1875c0.029039,-0.005257 0.06473,0.00515 0.09375,0c0.294201,-0.039459 0.613119,-0.074142 0.90625,-0.09375c1.20908,-0.080887 2.38678,0.008904 3.5625,0.25c-1.05875,-0.236366 -2.1359,-0.375252 -3.21875,-0.375zm5.8125,1.1875c0.283569,0.116402 0.564411,0.2407 0.84375,0.375c-0.279819,-0.131912 -0.560261,-0.259209 -0.84375,-0.375zm2.5,1.28125c5.933281,3.715523 10.607899,11.513138 11.9375,21.25c1.983768,14.527481 -4.196621,28.108795 -13.90625,31.125c-0.388828,0.102097 -0.76226,0.196075 -1.15625,0.28125c-0.324471,0.070129 -0.715071,0.165314 -1.15625,0.21875c-1.298389,0.157272 -3.109501,0.237595 -5.28125,0.25c-0.038811,-0.002823 -0.086229,0.003036 -0.125,0c-1.332809,-0.104416 -2.63567,-0.318726 -3.90625,-0.65625c1.368561,0.444595 2.78083,0.768204 4.21875,0.96875c0.04067,0.005676 0.08428,-0.005463 0.125,0c2.278481,0.133575 4.16905,0.165115 5.53125,0.09375c0.46287,-0.024246 0.878342,-0.07605 1.21875,-0.125c0.413349,-0.059433 0.81081,-0.141876 1.21875,-0.21875c10.186798,-2.390533 16.675011,-15.675476 14.59375,-30.46875c-1.452869,-10.326729 -6.718609,-18.751572 -13.3125,-22.71875zm-13.125,40.21875l-13,3.5c0.21422,0.265182 0.4335,0.524887 0.65625,0.78125l12.34375,-4.28125z" id="path3224"/>
     <path fill="#bfbfbf" fill-rule="nonzero" stroke-width="2" stroke-linecap="round" stroke-linejoin="round" marker-start="none" marker-mid="none" marker-end="none" stroke-miterlimit="4" stroke-dashoffset="0" filter="url(#filter3430)" id="path3230" d="m26.46875,93.34375c-0.28212,0.000069 -0.59186,0.012299 -0.875,0.03125c-0.027929,0.003067 -0.065809,-0.003181 -0.09375,0c-0.31152,0.022926 -0.593981,0.078697 -0.90625,0.125c-0.4102,0.060822 -0.81674,0.135902 -1.21875,0.21875c-3.351749,0.690804 -6.419661,2.134743 -9.0625,4.15625c1.964609,-0.800301 4.072981,-1.409286 6.28125,-1.78125c0.469629,-0.079109 0.9583,-0.129433 1.4375,-0.1875c0.364799,-0.044212 0.698589,-0.103104 1.0625,-0.125c0.03264,-0.003029 0.061119,0.00293 0.09375,0c0.33077,-0.018089 0.670429,-0.031189 1,-0.03125c8.156219,-0.001579 15.9128,5.48909 20.1875,13.71875c-3.470451,-9.588577 -10.46064,-16.126762 -17.90625,-16.125z"/>
     <path fill="#bfbfbf" fill-rule="nonzero" stroke-width="2" stroke-linecap="round" stroke-linejoin="round" marker-start="none" marker-mid="none" marker-end="none" stroke-miterlimit="4" stroke-dashoffset="0" filter="url(#filter3446)" id="path3237" d="m22.309469,106.999367c-0.245119,0.029427 -0.518909,0.076805 -0.786139,0.16378l-10.383581,3.37384l10.25256,-2.685966c1.563332,-0.409882 3.06843,0.051727 4.42202,1.08094c1.353601,1.029205 2.577671,2.625908 3.603142,4.520302c0.347059,0.641136 0.647598,1.361877 0.949919,2.063606c-0.27426,-0.735031 -0.53006,-1.483917 -0.85165,-2.16188c-0.936159,-1.973526 -2.0774,-3.679039 -3.30834,-4.815102c-1.230928,-1.136055 -2.531759,-1.703499 -3.89793,-1.53952z"/>
     <path fill="#bfbfbf" fill-rule="nonzero" stroke-width="2" stroke-linecap="round" stroke-linejoin="round" marker-start="none" marker-mid="none" marker-end="none" stroke-miterlimit="4" stroke-dashoffset="0" filter="url(#filter3414)" id="path3380" d="m42.39769,107.40625c0.73782,3.544067 0.875149,7.335121 0.300758,11.21875c-1.94759,13.168228 -11.464598,23.634171 -23.098349,26.875c1.200581,0.366028 2.41468,0.638794 3.66927,0.8125c0.039141,0.005417 0.08111,-0.005234 0.1203,0c2.192881,0.127609 4.01243,0.161926 5.32345,0.09375c0.44548,-0.023163 0.845341,-0.046982 1.17296,-0.09375c0.397831,-0.056778 0.78035,-0.145309 1.17297,-0.21875c9.804102,-2.28389 16.048552,-14.991699 14.045481,-29.125c-0.48819,-3.444611 -1.427151,-6.660477 -2.706841,-9.5625z"/>
    </g>
    <g id="g3541" transform="matrix(-1.10644, 0, 0, -1.10644, 221.453, 249.455)">
     <path fill="#bfbfbf" fill-rule="nonzero" stroke-width="2" stroke-linecap="round" stroke-linejoin="round" marker-start="none" marker-mid="none" marker-end="none" stroke-miterlimit="4" stroke-dashoffset="0" filter="url(#filter3504)" d="m22.8125,108.53125c-0.237471,0.014839 -0.47785,0.060448 -0.71875,0.125l-16.40625,4.375l16.40625,-3.34375c5.183121,-1.060707 9.65873,9.314369 9.78125,16.6875c0.28952,-7.30928 -3.95332,-18.163002 -9.0625,-17.84375z" id="path3543"/>
     <path fill="#bfbfbf" fill-rule="nonzero" stroke-width="2" stroke-linecap="round" stroke-linejoin="round" marker-start="none" marker-mid="none" marker-end="none" stroke-miterlimit="4" stroke-dashoffset="0" d="m26.53125,91.84375c-0.307541,0.000069 -0.628851,0.011223 -0.9375,0.03125c-0.030451,0.00325 -0.06329,-0.003357 -0.09375,0c-0.33959,0.024246 -0.65959,0.07605 -1,0.125c-0.447161,0.064301 -0.905519,0.131157 -1.34375,0.21875c-10.53196,2.105049 -18.40575,10.858414 -20.4375,21.625l19.375,-5.1875c7.70882,-2.065567 13.85067,22.076157 6.4375,24.0625l-19.8125,5.3125c4.24739,5.257996 10.19952,8.805145 16.75,9.71875c0.04067,0.005676 0.08428,-0.005463 0.125,0c2.278481,0.133575 4.16905,0.165115 5.53125,0.09375c0.46287,-0.024246 0.878342,-0.07605 1.21875,-0.125c0.413349,-0.059433 0.81081,-0.141876 1.21875,-0.21875c10.186798,-2.390533 16.675011,-15.675476 14.59375,-30.46875c-2.028999,-14.421829 -11.477039,-25.189827 -21.625,-25.1875z" id="path3545"/>
     <path fill="#bfbfbf" fill-rule="nonzero" stroke-width="2" stroke-linecap="round" stroke-linejoin="round" marker-start="none" marker-mid="none" marker-end="none" stroke-miterlimit="4" stroke-dashoffset="0" id="path3547" d="m26.53125,91.84375c-0.307541,0.000069 -0.628851,0.011223 -0.9375,0.03125c-0.030451,0.00325 -0.06329,-0.003357 -0.09375,0c-0.33959,0.024246 -0.65959,0.07605 -1,0.125c-0.447161,0.064301 -0.905519,0.131157 -1.34375,0.21875c-10.53196,2.105049 -18.40575,10.858414 -20.4375,21.625l19.375,-5.1875c7.70882,-2.065567 13.85067,22.076157 6.4375,24.0625l-19.8125,5.3125c4.24739,5.257996 10.19952,8.805145 16.75,9.71875c0.04067,0.005676 0.08428,-0.005463 0.125,0c2.278481,0.133575 4.16905,0.165115 5.53125,0.09375c0.46287,-0.024246 0.878342,-0.07605 1.21875,-0.125c0.413349,-0.059433 0.81081,-0.141876 1.21875,-0.21875c10.186798,-2.390533 16.675011,-15.675476 14.59375,-30.46875c-2.028999,-14.421829 -11.477039,-25.189827 -21.625,-25.1875z"/>
     <path fill="#bfbfbf" fill-rule="nonzero" stroke-width="2" stroke-linecap="round" stroke-linejoin="round" marker-start="none" marker-mid="none" marker-end="none" stroke-miterlimit="4" stroke-dashoffset="0" filter="url(#filter3492)" id="path3549" d="m26.53125,91.84375c-0.307541,0.000069 -0.628851,0.011223 -0.9375,0.03125c-0.030451,0.00325 -0.06329,-0.003357 -0.09375,0c-0.33959,0.024246 -0.65959,0.07605 -1,0.125c-0.447161,0.064301 -0.905519,0.131157 -1.34375,0.21875c-10.53196,2.105049 -18.40575,10.858414 -20.4375,21.625l1.125,-0.3125c2.39744,-10.027206 9.63485,-18.364059 19.125,-20.96875c0.4177,-0.114647 0.85504,-0.220367 1.28125,-0.3125c0.324471,-0.070137 0.613819,-0.141899 0.9375,-0.1875c0.029039,-0.005257 0.06473,0.00515 0.09375,0c0.294201,-0.039459 0.613119,-0.074142 0.90625,-0.09375c1.20908,-0.080887 2.38678,0.008904 3.5625,0.25c-1.05875,-0.236366 -2.1359,-0.375252 -3.21875,-0.375zm5.8125,1.1875c0.283569,0.116402 0.564411,0.2407 0.84375,0.375c-0.279819,-0.131912 -0.560261,-0.259209 -0.84375,-0.375zm2.5,1.28125c5.933281,3.715523 10.607899,11.513138 11.9375,21.25c1.983768,14.527481 -4.196621,28.108795 -13.90625,31.125c-0.388828,0.102097 -0.76226,0.196075 -1.15625,0.28125c-0.324471,0.070129 -0.715071,0.165314 -1.15625,0.21875c-1.298389,0.157272 -3.109501,0.237595 -5.28125,0.25c-0.038811,-0.002823 -0.086229,0.003036 -0.125,0c-1.332809,-0.104416 -2.63567,-0.318726 -3.90625,-0.65625c1.368561,0.444595 2.78083,0.768204 4.21875,0.96875c0.04067,0.005676 0.08428,-0.005463 0.125,0c2.278481,0.133575 4.16905,0.165115 5.53125,0.09375c0.46287,-0.024246 0.878342,-0.07605 1.21875,-0.125c0.413349,-0.059433 0.81081,-0.141876 1.21875,-0.21875c10.186798,-2.390533 16.675011,-15.675476 14.59375,-30.46875c-1.452869,-10.326729 -6.718609,-18.751572 -13.3125,-22.71875zm-13.125,40.21875l-13,3.5c0.21422,0.265182 0.4335,0.524887 0.65625,0.78125l12.34375,-4.28125z"/>
     <path fill="#bfbfbf" fill-rule="nonzero" stroke-width="2" stroke-linecap="round" stroke-linejoin="round" marker-start="none" marker-mid="none" marker-end="none" stroke-miterlimit="4" stroke-dashoffset="0" filter="url(#filter3430)" d="m26.46875,93.34375c-0.28212,0.000069 -0.59186,0.012299 -0.875,0.03125c-0.027929,0.003067 -0.065809,-0.003181 -0.09375,0c-0.31152,0.022926 -0.593981,0.078697 -0.90625,0.125c-0.4102,0.060822 -0.81674,0.135902 -1.21875,0.21875c-3.351749,0.690804 -6.419661,2.134743 -9.0625,4.15625c1.964609,-0.800301 4.072981,-1.409286 6.28125,-1.78125c0.469629,-0.079109 0.9583,-0.129433 1.4375,-0.1875c0.364799,-0.044212 0.698589,-0.103104 1.0625,-0.125c0.03264,-0.003029 0.061119,0.00293 0.09375,0c0.33077,-0.018089 0.670429,-0.031189 1,-0.03125c8.156219,-0.001579 15.9128,5.48909 20.1875,13.71875c-3.470451,-9.588577 -10.46064,-16.126762 -17.90625,-16.125z" id="path3551"/>
     <path fill="#bfbfbf" fill-rule="nonzero" stroke-width="2" stroke-linecap="round" stroke-linejoin="round" marker-start="none" marker-mid="none" marker-end="none" stroke-miterlimit="4" stroke-dashoffset="0" filter="url(#filter3446)" d="m22.309469,106.999367c-0.245119,0.029427 -0.518909,0.076805 -0.786139,0.16378l-10.383581,3.37384l10.25256,-2.685966c1.563332,-0.409882 3.06843,0.051727 4.42202,1.08094c1.353601,1.029205 2.577671,2.625908 3.603142,4.520302c0.347059,0.641136 0.647598,1.361877 0.949919,2.063606c-0.27426,-0.735031 -0.53006,-1.483917 -0.85165,-2.16188c-0.936159,-1.973526 -2.0774,-3.679039 -3.30834,-4.815102c-1.230928,-1.136055 -2.531759,-1.703499 -3.89793,-1.53952z" id="path3553"/>
     <path fill="#bfbfbf" fill-rule="nonzero" stroke-width="2" stroke-linecap="round" stroke-linejoin="round" marker-start="none" marker-mid="none" marker-end="none" stroke-miterlimit="4" stroke-dashoffset="0" filter="url(#filter3414)" d="m42.39769,107.40625c0.73782,3.544067 0.875149,7.335121 0.300758,11.21875c-1.94759,13.168228 -11.464598,23.634171 -23.098349,26.875c1.200581,0.366028 2.41468,0.638794 3.66927,0.8125c0.039141,0.005417 0.08111,-0.005234 0.1203,0c2.192881,0.127609 4.01243,0.161926 5.32345,0.09375c0.44548,-0.023163 0.845341,-0.046982 1.17296,-0.09375c0.397831,-0.056778 0.78035,-0.145309 1.17297,-0.21875c9.804102,-2.28389 16.048552,-14.991699 14.045481,-29.125c-0.48819,-3.444611 -1.427151,-6.660477 -2.706841,-9.5625z" id="path3555"/>
    </g>
   </g>
  </g>
 </g>
</svg>